<?xml version="1.0" encoding="UTF-8"?>
<svg width="16" height="16" fill="none" version="1.1" viewBox="0 0 16 16" xmlns="http://www.w3.org/2000/svg">
 <defs>
  <clipPath id="clipPath15">
   <rect x="7.3956" y="6.3618" width="9.3042" height="10.083" d="M 7.3956261,6.3618293 H 16.699801 V 16.445328 H 7.3956261 Z" display="none" fill="#ffcc5f" fill-rule="evenodd" stroke-width="0"/>
   <path class="powerclip" d="m-4.2-5h24.4v26h-24.4zm11.596 11.362v10.083h9.3042v-10.083z" fill="#ffcc5f" fill-rule="evenodd" stroke-width="0"/>
  </clipPath>
 </defs>
 <path d="m5.6163 0c-1.0013 0-1.8216 0.8216-1.8216 1.8229 0 0.47232 0.18736 0.9008 0.4856 1.2259l-1.4957 3.0184c-0.05408-0.00496-0.1064-0.01632-0.16176-0.01632-1.0013 0-1.8229 0.82032-1.8229 1.8216s0.8216 1.8229 1.8229 1.8229c0.6336 0 1.1936-0.33024 1.5205-0.8256l7.4672 1.0778c0.194 0.79728 0.9124 1.3975 1.7665 1.3975 1.0013 0 1.8229-0.8202 1.8229-1.8216 0-0.96992-0.7728-1.7661-1.7312-1.8152l-0.9813-3.0613c0.4199-0.33488 0.6962-0.84416 0.6962-1.4187 0-1.0013-0.8215-1.8232-1.8227-1.8232-0.6344 0-1.1949 0.3304-1.522 0.82688l-2.425-0.66224c-0.1256-0.88192-0.8832-1.5696-1.7978-1.5696zm0 0.92336c0.5024 0 0.9008 0.39712 0.9008 0.89952s-0.3984 0.89968-0.9008 0.89968-0.89824-0.39744-0.89824-0.89968c0-0.5024 0.39584-0.89952 0.89824-0.89952zm5.7447 1.4051c0.5024 0 0.8984 0.39728 0.8984 0.89968s-0.396 0.8992-0.8984 0.8992-0.9007-0.3968-0.9007-0.8992 0.3984-0.89968 0.9007-0.89968zm-4.1853 0.42144 2.3787 0.6512c0.0888 0.9184 0.8608 1.6454 1.8003 1.6486l0.9597 3.0008c-0.248 0.18016-0.4434 0.42208-0.577 0.7l-7.3105-1.0549c-0.04432-0.4416-0.24064-0.83968-0.5456-1.1328l1.4578-2.9448c0.0912 0.0144 0.18208 0.02784 0.27728 0.02784 0.66224 0 1.2398-0.36256 1.5594-0.896zm-4.5528 4.2229c0.5024 0 0.9008 0.39728 0.9008 0.89968 8.1e-4 0.11851-0.02194 0.236-0.06692 0.34565-0.04499 0.10965-0.11131 0.20926-0.19512 0.29306-0.08381 0.08379-0.18344 0.1501-0.29309 0.19507-0.10966 0.04496-0.22715 0.06769-0.34567 0.06686-0.5024 0-0.89952-0.3984-0.89952-0.90064-9.6e-4 -0.1184 0.02166-0.23581 0.06652-0.34539 0.04486-0.10957 0.11108-0.20913 0.1948-0.29286s0.18326-0.14997 0.29283-0.19485c0.10957-0.04489 0.22697-0.06752 0.34537-0.06658zm10.754 1.6501c0.5024 0 0.8995 0.39824 0.8995 0.90048 0 0.50244-0.3971 0.89724-0.8995 0.89724s-0.9008-0.3948-0.9008-0.89724c-8e-4 -0.1185 0.022-0.23597 0.067-0.3456s0.1113-0.20923 0.1951-0.293c0.0838-0.08378 0.1835-0.15007 0.2931-0.19503s0.2271-0.06768 0.3456-0.06685zm-12.577 3.5371v3.84h14.4v-3.84h-1.0032v2.8634h-1.2299v-2.0356h-1.0032v2.0356h-1.229v-2.0356h-1.0029v2.0356h-1.2304v-2.8634h-1.003v2.8634h-1.2304v-2.0356h-1.0027v2.0356h-1.229v-2.0356h-1.0032v2.0356h-1.2299v-2.8634z" clip-path="url(#clipPath15)" clip-rule="evenodd" fill="#6e6e6e" fill-rule="evenodd"/>
 <path d="m11.723 7.2485-3.5001 2.6698h2.625v3.7472h1.75v-3.7472h2.625z" fill="#59a869" stroke-width="1.1464"/>
 <path d="m8.2228 14.737h7" fill="#59a869" stroke="#59a869" stroke-width=".97747px"/>
</svg>
